<mxfile host="app.diagrams.net" agent="Mozilla/5.0 (X11; Linux x86_64) AppleWebKit/537.36 (KHTML, like Gecko) Chrome/126.0.0.0 YaBrowser/24.7.0.0 Safari/537.36" version="26.2.13">
  <diagram name="Страница — 1" id="-tc6Zpcz32htVxLumAgN">
    <mxGraphModel dx="1500" dy="1010" grid="1" gridSize="10" guides="1" tooltips="1" connect="1" arrows="1" fold="1" page="1" pageScale="1" pageWidth="827" pageHeight="1169" math="0" shadow="0">
      <root>
        <mxCell id="0" />
        <mxCell id="1" parent="0" />
        <mxCell id="M7IDQv3rWQjjXNekp93g-1" value="Пациент" style="swimlane;whiteSpace=wrap;html=1;" vertex="1" parent="1">
          <mxGeometry x="20" y="20" width="270" height="290" as="geometry" />
        </mxCell>
        <mxCell id="M7IDQv3rWQjjXNekp93g-2" value="Электронная система" style="swimlane;whiteSpace=wrap;html=1;" vertex="1" parent="1">
          <mxGeometry x="290" y="20" width="270" height="290" as="geometry" />
        </mxCell>
        <mxCell id="M7IDQv3rWQjjXNekp93g-5" value="" style="ellipse;html=1;shape=endState;fillColor=#000000;strokeColor=#ff0000;" vertex="1" parent="1">
          <mxGeometry x="750" y="590" width="30" height="30" as="geometry" />
        </mxCell>
        <mxCell id="M7IDQv3rWQjjXNekp93g-6" value="" style="ellipse;html=1;shape=startState;fillColor=#000000;strokeColor=#ff0000;" vertex="1" parent="1">
          <mxGeometry x="40" y="350" width="30" height="30" as="geometry" />
        </mxCell>
        <mxCell id="M7IDQv3rWQjjXNekp93g-7" value="" style="edgeStyle=orthogonalEdgeStyle;html=1;verticalAlign=bottom;endArrow=open;endSize=8;strokeColor=#000000;rounded=0;" edge="1" source="M7IDQv3rWQjjXNekp93g-6" parent="1">
          <mxGeometry relative="1" as="geometry">
            <mxPoint x="55" y="420" as="targetPoint" />
          </mxGeometry>
        </mxCell>
        <mxCell id="M7IDQv3rWQjjXNekp93g-21" style="edgeStyle=orthogonalEdgeStyle;rounded=0;orthogonalLoop=1;jettySize=auto;html=1;exitX=0;exitY=0.5;exitDx=0;exitDy=0;entryX=1;entryY=0.5;entryDx=0;entryDy=0;" edge="1" parent="1" source="M7IDQv3rWQjjXNekp93g-8" target="M7IDQv3rWQjjXNekp93g-19">
          <mxGeometry relative="1" as="geometry" />
        </mxCell>
        <mxCell id="M7IDQv3rWQjjXNekp93g-28" style="edgeStyle=orthogonalEdgeStyle;rounded=0;orthogonalLoop=1;jettySize=auto;html=1;exitX=0.5;exitY=1;exitDx=0;exitDy=0;entryX=0.5;entryY=0;entryDx=0;entryDy=0;" edge="1" parent="1" source="M7IDQv3rWQjjXNekp93g-8" target="M7IDQv3rWQjjXNekp93g-14">
          <mxGeometry relative="1" as="geometry" />
        </mxCell>
        <mxCell id="M7IDQv3rWQjjXNekp93g-8" value="" style="rhombus;whiteSpace=wrap;html=1;" vertex="1" parent="1">
          <mxGeometry x="80" y="650" width="50" height="30" as="geometry" />
        </mxCell>
        <mxCell id="M7IDQv3rWQjjXNekp93g-11" value="База данных" style="swimlane;whiteSpace=wrap;html=1;" vertex="1" parent="1">
          <mxGeometry x="560" y="20" width="250" height="290" as="geometry" />
        </mxCell>
        <mxCell id="M7IDQv3rWQjjXNekp93g-16" style="edgeStyle=orthogonalEdgeStyle;rounded=0;orthogonalLoop=1;jettySize=auto;html=1;exitX=0.5;exitY=1;exitDx=0;exitDy=0;entryX=0.5;entryY=0;entryDx=0;entryDy=0;endArrow=open;endFill=0;endSize=8;" edge="1" parent="1" source="M7IDQv3rWQjjXNekp93g-12" target="M7IDQv3rWQjjXNekp93g-8">
          <mxGeometry relative="1" as="geometry" />
        </mxCell>
        <mxCell id="M7IDQv3rWQjjXNekp93g-12" value="Выбрать врача" style="rounded=1;whiteSpace=wrap;html=1;arcSize=50;" vertex="1" parent="1">
          <mxGeometry x="45" y="570" width="120" height="40" as="geometry" />
        </mxCell>
        <mxCell id="M7IDQv3rWQjjXNekp93g-13" value="" style="rounded=1;whiteSpace=wrap;html=1;arcSize=50;" vertex="1" parent="1">
          <mxGeometry x="665" y="410" width="120" height="40" as="geometry" />
        </mxCell>
        <mxCell id="M7IDQv3rWQjjXNekp93g-37" style="edgeStyle=orthogonalEdgeStyle;rounded=0;orthogonalLoop=1;jettySize=auto;html=1;exitX=0.5;exitY=1;exitDx=0;exitDy=0;entryX=0.5;entryY=0;entryDx=0;entryDy=0;" edge="1" parent="1" source="M7IDQv3rWQjjXNekp93g-14" target="M7IDQv3rWQjjXNekp93g-36">
          <mxGeometry relative="1" as="geometry" />
        </mxCell>
        <mxCell id="M7IDQv3rWQjjXNekp93g-14" value="Выбрать дату" style="rounded=1;whiteSpace=wrap;html=1;arcSize=50;" vertex="1" parent="1">
          <mxGeometry x="45" y="720" width="120" height="40" as="geometry" />
        </mxCell>
        <mxCell id="M7IDQv3rWQjjXNekp93g-40" style="edgeStyle=orthogonalEdgeStyle;rounded=0;orthogonalLoop=1;jettySize=auto;html=1;exitX=0.5;exitY=1;exitDx=0;exitDy=0;entryX=0.5;entryY=0;entryDx=0;entryDy=0;" edge="1" parent="1" source="M7IDQv3rWQjjXNekp93g-15" target="M7IDQv3rWQjjXNekp93g-35">
          <mxGeometry relative="1" as="geometry" />
        </mxCell>
        <mxCell id="M7IDQv3rWQjjXNekp93g-15" value="Выбрать время" style="rounded=1;whiteSpace=wrap;html=1;arcSize=50;" vertex="1" parent="1">
          <mxGeometry x="45" y="850" width="120" height="40" as="geometry" />
        </mxCell>
        <mxCell id="M7IDQv3rWQjjXNekp93g-17" value="Запись" style="rounded=0;whiteSpace=wrap;html=1;" vertex="1" parent="1">
          <mxGeometry x="280" y="960" width="120" height="60" as="geometry" />
        </mxCell>
        <mxCell id="M7IDQv3rWQjjXNekp93g-19" value="" style="ellipse;html=1;shape=endState;fillColor=#000000;strokeColor=#ff0000;" vertex="1" parent="1">
          <mxGeometry x="20" y="650" width="30" height="30" as="geometry" />
        </mxCell>
        <mxCell id="M7IDQv3rWQjjXNekp93g-22" value="" style="rounded=1;whiteSpace=wrap;html=1;arcSize=50;" vertex="1" parent="1">
          <mxGeometry x="675" y="420" width="120" height="40" as="geometry" />
        </mxCell>
        <mxCell id="M7IDQv3rWQjjXNekp93g-23" value="" style="rounded=1;whiteSpace=wrap;html=1;arcSize=50;" vertex="1" parent="1">
          <mxGeometry x="294" y="490" width="120" height="40" as="geometry" />
        </mxCell>
        <mxCell id="M7IDQv3rWQjjXNekp93g-24" value="" style="rounded=1;whiteSpace=wrap;html=1;arcSize=50;" vertex="1" parent="1">
          <mxGeometry x="45" y="980" width="120" height="40" as="geometry" />
        </mxCell>
        <mxCell id="M7IDQv3rWQjjXNekp93g-25" value="" style="ellipse;html=1;shape=endState;fillColor=#000000;strokeColor=#ff0000;" vertex="1" parent="1">
          <mxGeometry x="760" y="600" width="30" height="30" as="geometry" />
        </mxCell>
        <mxCell id="M7IDQv3rWQjjXNekp93g-26" value="" style="ellipse;html=1;shape=endState;fillColor=#000000;strokeColor=#ff0000;" vertex="1" parent="1">
          <mxGeometry x="15" y="920" width="30" height="30" as="geometry" />
        </mxCell>
        <mxCell id="M7IDQv3rWQjjXNekp93g-27" value="" style="ellipse;html=1;shape=endState;fillColor=#000000;strokeColor=#ff0000;" vertex="1" parent="1">
          <mxGeometry x="20" y="790" width="30" height="30" as="geometry" />
        </mxCell>
        <mxCell id="M7IDQv3rWQjjXNekp93g-31" value="" style="rhombus;whiteSpace=wrap;html=1;" vertex="1" parent="1">
          <mxGeometry x="700" y="700" width="50" height="30" as="geometry" />
        </mxCell>
        <mxCell id="M7IDQv3rWQjjXNekp93g-32" value="" style="rhombus;whiteSpace=wrap;html=1;" vertex="1" parent="1">
          <mxGeometry x="710" y="710" width="50" height="30" as="geometry" />
        </mxCell>
        <mxCell id="M7IDQv3rWQjjXNekp93g-33" value="" style="rhombus;whiteSpace=wrap;html=1;" vertex="1" parent="1">
          <mxGeometry x="720" y="720" width="50" height="30" as="geometry" />
        </mxCell>
        <mxCell id="M7IDQv3rWQjjXNekp93g-34" value="" style="rhombus;whiteSpace=wrap;html=1;" vertex="1" parent="1">
          <mxGeometry x="730" y="730" width="50" height="30" as="geometry" />
        </mxCell>
        <mxCell id="M7IDQv3rWQjjXNekp93g-41" style="edgeStyle=orthogonalEdgeStyle;rounded=0;orthogonalLoop=1;jettySize=auto;html=1;exitX=0;exitY=0.5;exitDx=0;exitDy=0;entryX=1;entryY=0.5;entryDx=0;entryDy=0;" edge="1" parent="1" source="M7IDQv3rWQjjXNekp93g-35" target="M7IDQv3rWQjjXNekp93g-26">
          <mxGeometry relative="1" as="geometry" />
        </mxCell>
        <mxCell id="M7IDQv3rWQjjXNekp93g-43" style="edgeStyle=orthogonalEdgeStyle;rounded=0;orthogonalLoop=1;jettySize=auto;html=1;exitX=0.5;exitY=1;exitDx=0;exitDy=0;entryX=0.5;entryY=0;entryDx=0;entryDy=0;" edge="1" parent="1" source="M7IDQv3rWQjjXNekp93g-35" target="M7IDQv3rWQjjXNekp93g-24">
          <mxGeometry relative="1" as="geometry" />
        </mxCell>
        <mxCell id="M7IDQv3rWQjjXNekp93g-35" value="" style="rhombus;whiteSpace=wrap;html=1;" vertex="1" parent="1">
          <mxGeometry x="80" y="920" width="50" height="30" as="geometry" />
        </mxCell>
        <mxCell id="M7IDQv3rWQjjXNekp93g-38" style="edgeStyle=orthogonalEdgeStyle;rounded=0;orthogonalLoop=1;jettySize=auto;html=1;exitX=0;exitY=0.5;exitDx=0;exitDy=0;entryX=1;entryY=0.5;entryDx=0;entryDy=0;" edge="1" parent="1" source="M7IDQv3rWQjjXNekp93g-36" target="M7IDQv3rWQjjXNekp93g-27">
          <mxGeometry relative="1" as="geometry" />
        </mxCell>
        <mxCell id="M7IDQv3rWQjjXNekp93g-39" style="edgeStyle=orthogonalEdgeStyle;rounded=0;orthogonalLoop=1;jettySize=auto;html=1;exitX=0.5;exitY=1;exitDx=0;exitDy=0;entryX=0.5;entryY=0;entryDx=0;entryDy=0;" edge="1" parent="1" source="M7IDQv3rWQjjXNekp93g-36" target="M7IDQv3rWQjjXNekp93g-15">
          <mxGeometry relative="1" as="geometry" />
        </mxCell>
        <mxCell id="M7IDQv3rWQjjXNekp93g-36" value="" style="rhombus;whiteSpace=wrap;html=1;" vertex="1" parent="1">
          <mxGeometry x="80" y="790" width="50" height="30" as="geometry" />
        </mxCell>
        <mxCell id="M7IDQv3rWQjjXNekp93g-44" value="" style="html=1;shadow=0;dashed=0;align=center;verticalAlign=middle;shape=mxgraph.arrows2.arrow;dy=0;dx=16;notch=0;" vertex="1" parent="1">
          <mxGeometry x="670" y="800" width="100" height="30" as="geometry" />
        </mxCell>
        <mxCell id="M7IDQv3rWQjjXNekp93g-45" value="" style="html=1;shadow=0;dashed=0;align=center;verticalAlign=middle;shape=mxgraph.arrows2.arrow;dy=0;dx=0;notch=17.2;" vertex="1" parent="1">
          <mxGeometry x="670" y="910" width="100" height="30" as="geometry" />
        </mxCell>
        <mxCell id="M7IDQv3rWQjjXNekp93g-46" value="" style="html=1;shadow=0;dashed=0;align=center;verticalAlign=middle;shape=mxgraph.arrows2.arrow;dy=0;dx=16;notch=0;" vertex="1" parent="1">
          <mxGeometry x="680" y="810" width="100" height="30" as="geometry" />
        </mxCell>
        <mxCell id="M7IDQv3rWQjjXNekp93g-47" value="" style="html=1;shadow=0;dashed=0;align=center;verticalAlign=middle;shape=mxgraph.arrows2.arrow;dy=0;dx=16;notch=0;" vertex="1" parent="1">
          <mxGeometry x="690" y="820" width="100" height="30" as="geometry" />
        </mxCell>
        <mxCell id="M7IDQv3rWQjjXNekp93g-48" value="" style="html=1;shadow=0;dashed=0;align=center;verticalAlign=middle;shape=mxgraph.arrows2.arrow;dy=0;dx=16;notch=0;" vertex="1" parent="1">
          <mxGeometry x="700" y="830" width="100" height="30" as="geometry" />
        </mxCell>
        <mxCell id="M7IDQv3rWQjjXNekp93g-52" value="" style="html=1;shadow=0;dashed=0;align=center;verticalAlign=middle;shape=mxgraph.arrows2.arrow;dy=0;dx=0;notch=17.2;" vertex="1" parent="1">
          <mxGeometry x="680" y="920" width="100" height="30" as="geometry" />
        </mxCell>
        <mxCell id="M7IDQv3rWQjjXNekp93g-53" value="" style="html=1;shadow=0;dashed=0;align=center;verticalAlign=middle;shape=mxgraph.arrows2.arrow;dy=0;dx=0;notch=17.2;" vertex="1" parent="1">
          <mxGeometry x="690" y="930" width="100" height="30" as="geometry" />
        </mxCell>
        <mxCell id="M7IDQv3rWQjjXNekp93g-54" value="" style="html=1;shadow=0;dashed=0;align=center;verticalAlign=middle;shape=mxgraph.arrows2.arrow;dy=0;dx=0;notch=17.2;" vertex="1" parent="1">
          <mxGeometry x="700" y="940" width="100" height="30" as="geometry" />
        </mxCell>
        <mxCell id="M7IDQv3rWQjjXNekp93g-55" value="" style="ellipse;html=1;shape=endState;fillColor=#000000;strokeColor=#ff0000;" vertex="1" parent="1">
          <mxGeometry x="770" y="610" width="30" height="30" as="geometry" />
        </mxCell>
        <mxCell id="M7IDQv3rWQjjXNekp93g-56" value="" style="ellipse;html=1;shape=endState;fillColor=#000000;strokeColor=#ff0000;" vertex="1" parent="1">
          <mxGeometry x="780" y="620" width="30" height="30" as="geometry" />
        </mxCell>
        <mxCell id="M7IDQv3rWQjjXNekp93g-57" value="" style="rounded=1;whiteSpace=wrap;html=1;arcSize=50;" vertex="1" parent="1">
          <mxGeometry x="685" y="430" width="120" height="40" as="geometry" />
        </mxCell>
        <mxCell id="M7IDQv3rWQjjXNekp93g-58" value="" style="rounded=1;whiteSpace=wrap;html=1;arcSize=50;" vertex="1" parent="1">
          <mxGeometry x="695" y="440" width="120" height="40" as="geometry" />
        </mxCell>
      </root>
    </mxGraphModel>
  </diagram>
</mxfile>
